<svg width="60" height="57" viewBox="0 0 60 57" fill="none" xmlns="http://www.w3.org/2000/svg">
<g clip-path="url(#clip0_8067_2)">
<mask id="path-1-outside-1_8067_2" maskUnits="userSpaceOnUse" x="1" y="9" width="59" height="38" fill="black">
<rect fill="white" x="1" y="9" width="59" height="38"/>
<path d="M18.0284 10.0909H22.2557V35.0455C22.2557 37.2727 21.8466 39.1648 21.0284 40.7216C20.2102 42.2784 19.0568 43.4602 17.5682 44.267C16.0795 45.0739 14.3239 45.4773 12.3011 45.4773C10.392 45.4773 8.69318 45.1307 7.20455 44.4375C5.71591 43.733 4.54545 42.733 3.69318 41.4375C2.84091 40.142 2.41477 38.6023 2.41477 36.8182H6.57386C6.57386 37.8068 6.81818 38.6705 7.30682 39.4091C7.80682 40.1364 8.48864 40.7045 9.35227 41.1136C10.2159 41.5227 11.1989 41.7273 12.3011 41.7273C13.517 41.7273 14.5511 41.4716 15.4034 40.9602C16.2557 40.4489 16.9034 39.6989 17.3466 38.7102C17.8011 37.7102 18.0284 36.4886 18.0284 35.0455V10.0909ZM41.5 45H30.7273V10.0909H41.9773C45.3636 10.0909 48.2614 10.7898 50.6705 12.1875C53.0795 13.5739 54.9261 15.5682 56.2102 18.1705C57.4943 20.7614 58.1364 23.8636 58.1364 27.4773C58.1364 31.1136 57.4886 34.2443 56.1932 36.8693C54.8977 39.483 53.0114 41.4943 50.5341 42.9034C48.0568 44.3011 45.0455 45 41.5 45ZM34.9545 41.25H41.2273C44.1136 41.25 46.5057 40.6932 48.4034 39.5795C50.3011 38.4659 51.7159 36.8807 52.6477 34.8239C53.5795 32.767 54.0455 30.3182 54.0455 27.4773C54.0455 24.6591 53.5852 22.233 52.6648 20.1989C51.7443 18.1534 50.3693 16.5852 48.5398 15.4943C46.7102 14.392 44.4318 13.8409 41.7045 13.8409H34.9545V41.25Z"/>
</mask>
<path d="M18.0284 10.0909H22.2557V35.0455C22.2557 37.2727 21.8466 39.1648 21.0284 40.7216C20.2102 42.2784 19.0568 43.4602 17.5682 44.267C16.0795 45.0739 14.3239 45.4773 12.3011 45.4773C10.392 45.4773 8.69318 45.1307 7.20455 44.4375C5.71591 43.733 4.54545 42.733 3.69318 41.4375C2.84091 40.142 2.41477 38.6023 2.41477 36.8182H6.57386C6.57386 37.8068 6.81818 38.6705 7.30682 39.4091C7.80682 40.1364 8.48864 40.7045 9.35227 41.1136C10.2159 41.5227 11.1989 41.7273 12.3011 41.7273C13.517 41.7273 14.5511 41.4716 15.4034 40.9602C16.2557 40.4489 16.9034 39.6989 17.3466 38.7102C17.8011 37.7102 18.0284 36.4886 18.0284 35.0455V10.0909ZM41.5 45H30.7273V10.0909H41.9773C45.3636 10.0909 48.2614 10.7898 50.6705 12.1875C53.0795 13.5739 54.9261 15.5682 56.2102 18.1705C57.4943 20.7614 58.1364 23.8636 58.1364 27.4773C58.1364 31.1136 57.4886 34.2443 56.1932 36.8693C54.8977 39.483 53.0114 41.4943 50.5341 42.9034C48.0568 44.3011 45.0455 45 41.5 45ZM34.9545 41.25H41.2273C44.1136 41.25 46.5057 40.6932 48.4034 39.5795C50.3011 38.4659 51.7159 36.8807 52.6477 34.8239C53.5795 32.767 54.0455 30.3182 54.0455 27.4773C54.0455 24.6591 53.5852 22.233 52.6648 20.1989C51.7443 18.1534 50.3693 16.5852 48.5398 15.4943C46.7102 14.392 44.4318 13.8409 41.7045 13.8409H34.9545V41.25Z" fill="#F7DF1E"/>
<path d="M18.0284 10.0909V9.09091H17.0284V10.0909H18.0284ZM22.2557 10.0909H23.2557V9.09091H22.2557V10.0909ZM21.0284 40.7216L21.9136 41.1868L21.9136 41.1868L21.0284 40.7216ZM17.5682 44.267L18.0447 45.1462L18.0447 45.1462L17.5682 44.267ZM7.20455 44.4375L6.77675 45.3414L6.78242 45.344L7.20455 44.4375ZM3.69318 41.4375L2.85776 41.9871L2.85776 41.9871L3.69318 41.4375ZM2.41477 36.8182V35.8182H1.41477V36.8182H2.41477ZM6.57386 36.8182H7.57386V35.8182H6.57386V36.8182ZM7.30682 39.4091L6.4728 39.9608L6.47772 39.9683L6.48278 39.9756L7.30682 39.4091ZM9.35227 41.1136L9.78036 40.2099L9.78036 40.2099L9.35227 41.1136ZM15.4034 40.9602L14.8889 40.1027L14.8889 40.1027L15.4034 40.9602ZM17.3466 38.7102L16.4362 38.2964L16.4341 38.3012L17.3466 38.7102ZM18.0284 11.0909H22.2557V9.09091H18.0284V11.0909ZM21.2557 10.0909V35.0455H23.2557V10.0909H21.2557ZM21.2557 35.0455C21.2557 37.1528 20.8686 38.8762 20.1432 40.2564L21.9136 41.1868C22.8246 39.4533 23.2557 37.3926 23.2557 35.0455H21.2557ZM20.1432 40.2564C19.4135 41.6449 18.3991 42.6793 17.0917 43.3879L18.0447 45.1462C19.7146 44.2412 21.007 42.9119 21.9136 41.1868L20.1432 40.2564ZM17.0917 43.3879C15.7753 44.1013 14.1897 44.4773 12.3011 44.4773V46.4773C14.458 46.4773 16.3838 46.0464 18.0447 45.1462L17.0917 43.3879ZM12.3011 44.4773C10.5143 44.4773 8.96327 44.1533 7.62667 43.531L6.78242 45.344C8.42309 46.108 10.2698 46.4773 12.3011 46.4773V44.4773ZM7.63234 43.5336C6.29877 42.9025 5.27373 42.0205 4.5286 40.8879L2.85776 41.9871C3.81718 43.4454 5.13305 44.5634 6.77676 45.3414L7.63234 43.5336ZM4.5286 40.8879C3.79916 39.7791 3.41477 38.4371 3.41477 36.8182H1.41477C1.41477 38.7674 1.88266 40.505 2.85776 41.9871L4.5286 40.8879ZM2.41477 37.8182H6.57386V35.8182H2.41477V37.8182ZM5.57386 36.8182C5.57386 37.9794 5.86356 39.0399 6.4728 39.9608L8.14084 38.8574C7.77281 38.301 7.57386 37.6343 7.57386 36.8182H5.57386ZM6.48278 39.9756C7.09092 40.8602 7.91476 41.5392 8.92419 42.0174L9.78036 40.2099C9.06252 39.8699 8.52272 39.4125 8.13086 38.8426L6.48278 39.9756ZM8.92419 42.0174C9.94072 42.4989 11.0735 42.7273 12.3011 42.7273V40.7273C11.3243 40.7273 10.4911 40.5466 9.78036 40.2099L8.92419 42.0174ZM12.3011 42.7273C13.6579 42.7273 14.8789 42.4411 15.9179 41.8177L14.8889 40.1027C14.2234 40.502 13.3762 40.7273 12.3011 40.7273V42.7273ZM15.9179 41.8177C16.9615 41.1916 17.7401 40.277 18.2591 39.1193L16.4341 38.3012C16.0667 39.1208 15.5499 39.7061 14.8889 40.1027L15.9179 41.8177ZM18.257 39.124C18.786 37.9601 19.0284 36.5886 19.0284 35.0455H17.0284C17.0284 36.3887 16.8162 37.4604 16.4362 38.2964L18.257 39.124ZM19.0284 35.0455V10.0909H17.0284V35.0455H19.0284ZM30.7273 45H29.7273V46H30.7273V45ZM30.7273 10.0909V9.09091H29.7273V10.0909H30.7273ZM50.6705 12.1875L50.1686 13.0525L50.1717 13.0542L50.6705 12.1875ZM56.2102 18.1705L55.3135 18.613L55.3142 18.6145L56.2102 18.1705ZM56.1932 36.8693L57.0892 37.3134L57.0899 37.3119L56.1932 36.8693ZM50.5341 42.9034L51.0255 43.7743L51.0285 43.7726L50.5341 42.9034ZM34.9545 41.25H33.9545V42.25H34.9545V41.25ZM52.6648 20.1989L51.7528 20.6092L51.7537 20.6111L52.6648 20.1989ZM48.5398 15.4943L48.0237 16.3509L48.0276 16.3532L48.5398 15.4943ZM34.9545 13.8409V12.8409H33.9545V13.8409H34.9545ZM41.5 44H30.7273V46H41.5V44ZM31.7273 45V10.0909H29.7273V45H31.7273ZM30.7273 11.0909H41.9773V9.09091H30.7273V11.0909ZM41.9773 11.0909C45.2253 11.0909 47.9417 11.7605 50.1686 13.0525L51.1723 11.3225C48.581 9.81909 45.502 9.09091 41.9773 9.09091V11.0909ZM50.1717 13.0542C52.4012 14.3372 54.113 16.1801 55.3135 18.613L57.107 17.7279C55.7393 14.9562 53.7579 12.8105 51.1692 11.3208L50.1717 13.0542ZM55.3142 18.6145C56.515 21.0373 57.1364 23.9801 57.1364 27.4773H59.1364C59.1364 23.7471 58.4736 20.4854 57.1062 17.7264L55.3142 18.6145ZM57.1364 27.4773C57.1364 30.9965 56.5095 33.9687 55.2964 36.4268L57.0899 37.3119C58.4678 34.52 59.1364 31.2308 59.1364 27.4773H57.1364ZM55.2972 36.4252C54.088 38.8648 52.3394 40.7261 50.0397 42.0342L51.0285 43.7726C53.6833 42.2626 55.7074 40.1011 57.0892 37.3134L55.2972 36.4252ZM50.0427 42.0325C47.7481 43.3272 44.9152 44 41.5 44V46C45.1757 46 48.3656 45.2751 51.0255 43.7743L50.0427 42.0325ZM34.9545 42.25H41.2273V40.25H34.9545V42.25ZM41.2273 42.25C44.2376 42.25 46.8176 41.6696 48.9095 40.442L47.8973 38.7171C46.1937 39.7168 43.9897 40.25 41.2273 40.25V42.25ZM48.9095 40.442C50.9903 39.2209 52.5439 37.4762 53.5586 35.2365L51.7368 34.4112C50.8879 36.2851 49.612 37.7109 47.8973 38.7171L48.9095 40.442ZM53.5586 35.2365C54.5623 33.0212 55.0455 30.4249 55.0455 27.4773H53.0455C53.0455 30.2114 52.5968 32.5129 51.7368 34.4112L53.5586 35.2365ZM55.0455 27.4773C55.0455 24.553 54.5682 21.9795 53.5758 19.7866L51.7537 20.6111C52.6023 22.4864 53.0455 24.7652 53.0455 27.4773H55.0455ZM53.5767 19.7885C52.5768 17.5666 51.0672 15.8371 49.0519 14.6354L48.0276 16.3532C49.6715 17.3334 50.9118 18.7402 51.7529 20.6092L53.5767 19.7885ZM49.0558 14.6378C47.0329 13.419 44.5641 12.8409 41.7045 12.8409V14.8409C44.2995 14.8409 46.3876 15.3651 48.0237 16.3509L49.0558 14.6378ZM41.7045 12.8409H34.9545V14.8409H41.7045V12.8409ZM33.9545 13.8409V41.25H35.9545V13.8409H33.9545Z" fill="#F7DF1E" mask="url(#path-1-outside-1_8067_2)"/>
</g>
<defs>
<clipPath id="clip0_8067_2">
<rect width="60" height="57" fill="white"/>
</clipPath>
</defs>
</svg>
